<svg xmlns="http://www.w3.org/2000/svg" xmlns:xlink="http://www.w3.org/1999/xlink" width="500" zoomAndPan="magnify" viewBox="0 0 375 374.999991" height="500" preserveAspectRatio="xMidYMid meet" version="1.0"><defs><g/><clipPath id="2f5ce624a9"><path d="M 37.5 76 L 266 76 L 266 257 L 37.5 257 Z M 37.5 76 " clip-rule="nonzero"/></clipPath><clipPath id="4d6193b5ce"><path d="M 37.5 10.328125 L 337.5 10.328125 L 337.5 257.078125 L 37.5 257.078125 Z M 37.5 10.328125 " clip-rule="nonzero"/></clipPath></defs><g clip-path="url(#2f5ce624a9)"><path fill="#008cce" d="M 165.828125 77.191406 L 147.167969 103.335938 L 140.878906 112.148438 L 125.496094 133.703125 L 116.195312 146.738281 L 91.035156 181.988281 L 62.660156 221.75 L 37.5 257 L 250.800781 257 L 225.644531 221.75 L 106.007812 221.75 L 134.382812 181.988281 L 190.304688 181.988281 L 196.804688 172.882812 L 215.464844 146.738281 L 159.542969 146.738281 L 168.839844 133.703125 L 184.226562 112.148438 L 240.144531 112.148438 L 265.300781 76.898438 L 209.382812 76.898438 L 209.175781 77.191406 L 208.964844 76.898438 L 166.035156 76.898438 Z M 165.828125 77.191406 " fill-opacity="1" fill-rule="evenodd"/></g><g clip-path="url(#4d6193b5ce)"><path fill="#004160" d="M 144.984375 45.65625 L 249.90625 45.65625 C 261.292969 45.65625 271.835938 49.460938 280.316406 55.863281 C 287.476562 61.269531 293.167969 68.523438 296.660156 76.898438 C 298.257812 80.726562 299.394531 84.785156 300.003906 89.011719 C 300.34375 91.359375 300.519531 93.757812 300.519531 96.199219 C 300.519531 101.765625 299.605469 107.128906 297.917969 112.148438 C 292.175781 129.257812 277.480469 142.355469 259.457031 145.828125 L 258.308594 146.039062 C 255.574219 146.5 252.769531 146.738281 249.90625 146.738281 L 215.460938 146.738281 L 237.132812 177.109375 L 240.617188 181.988281 L 268.996094 221.75 L 294.152344 257.003906 L 337.5 257.003906 L 312.34375 221.75 L 280.050781 176.507812 C 307.714844 166.070312 328.6875 141.738281 334.316406 112.148438 C 335.300781 106.976562 335.816406 101.644531 335.816406 96.199219 C 335.816406 89.566406 335.054688 83.105469 333.609375 76.898438 C 331.746094 68.878906 328.746094 61.277344 324.792969 54.28125 C 318.78125 43.648438 310.570312 34.40625 300.785156 27.179688 C 288.21875 17.90625 273.0625 11.957031 256.648438 10.667969 C 254.421875 10.496094 252.175781 10.40625 249.90625 10.40625 L 37.5 10.40625 L 62.660156 45.65625 L 84.953125 76.898438 L 103.820312 103.335938 L 122.6875 76.898438 L 125.496094 72.964844 L 106.003906 45.65625 Z M 144.984375 45.65625 " fill-opacity="1" fill-rule="evenodd"/></g><g fill="#004160" fill-opacity="1"><g transform="translate(20.962875, 320.670447)"><g><path d="M 32.5625 0 L 5.84375 0 L 5.84375 -46.40625 L 32.5625 -46.40625 L 32.5625 -38.34375 L 15.671875 -38.34375 L 15.671875 -28.15625 L 31.390625 -28.15625 L 31.390625 -20.09375 L 15.671875 -20.09375 L 15.671875 -8.125 L 32.5625 -8.125 Z M 32.5625 0 "/></g></g></g><g fill="#004160" fill-opacity="1"><g transform="translate(63.862269, 320.670447)"><g><path d="M 1.9375 -13.453125 L 1.9375 -21.390625 L 18.984375 -21.390625 L 18.984375 -13.453125 Z M 1.9375 -13.453125 "/></g></g></g><g fill="#004160" fill-opacity="1"><g transform="translate(91.275244, 320.670447)"><g><path d="M 15.671875 -25.796875 L 18.859375 -25.796875 C 21.960938 -25.796875 24.253906 -26.3125 25.734375 -27.34375 C 27.222656 -28.382812 27.96875 -30.019531 27.96875 -32.25 C 27.96875 -34.445312 27.207031 -36.007812 25.6875 -36.9375 C 24.175781 -37.875 21.832031 -38.34375 18.65625 -38.34375 L 15.671875 -38.34375 Z M 15.671875 -17.8125 L 15.671875 0 L 5.84375 0 L 5.84375 -46.40625 L 19.359375 -46.40625 C 25.660156 -46.40625 30.320312 -45.253906 33.34375 -42.953125 C 36.375 -40.660156 37.890625 -37.175781 37.890625 -32.5 C 37.890625 -29.769531 37.140625 -27.34375 35.640625 -25.21875 C 34.140625 -23.09375 32.015625 -21.425781 29.265625 -20.21875 C 36.242188 -9.789062 40.789062 -3.050781 42.90625 0 L 32 0 L 20.921875 -17.8125 Z M 15.671875 -17.8125 "/></g></g></g><g fill="#004160" fill-opacity="1"><g transform="translate(140.680198, 320.670447)"><g><path d="M 43.609375 -46.40625 L 43.609375 -16.375 C 43.609375 -12.945312 42.835938 -9.941406 41.296875 -7.359375 C 39.765625 -4.773438 37.550781 -2.796875 34.65625 -1.421875 C 31.757812 -0.046875 28.332031 0.640625 24.375 0.640625 C 18.40625 0.640625 13.769531 -0.882812 10.46875 -3.9375 C 7.164062 -7 5.515625 -11.1875 5.515625 -16.5 L 5.515625 -46.40625 L 15.328125 -46.40625 L 15.328125 -18 C 15.328125 -14.414062 16.046875 -11.789062 17.484375 -10.125 C 18.921875 -8.457031 21.300781 -7.625 24.625 -7.625 C 27.84375 -7.625 30.175781 -8.460938 31.625 -10.140625 C 33.070312 -11.816406 33.796875 -14.457031 33.796875 -18.0625 L 33.796875 -46.40625 Z M 43.609375 -46.40625 "/></g></g></g><g fill="#004160" fill-opacity="1"><g transform="translate(196.305118, 320.670447)"><g><path d="M 34.25 0 L 30.875 -11.046875 L 13.96875 -11.046875 L 10.59375 0 L 0 0 L 16.375 -46.59375 L 28.40625 -46.59375 L 44.84375 0 Z M 28.53125 -19.296875 C 25.425781 -29.304688 23.675781 -34.96875 23.28125 -36.28125 C 22.882812 -37.59375 22.601562 -38.628906 22.4375 -39.390625 C 21.738281 -36.679688 19.738281 -29.984375 16.4375 -19.296875 Z M 28.53125 -19.296875 "/></g></g></g><g fill="#004160" fill-opacity="1"><g transform="translate(247.645874, 320.670447)"><g><path d="M 47 0 L 34.5 0 L 14.3125 -35.109375 L 14.03125 -35.109375 C 14.425781 -28.898438 14.625 -24.476562 14.625 -21.84375 L 14.625 0 L 5.84375 0 L 5.84375 -46.40625 L 18.25 -46.40625 L 38.40625 -11.640625 L 38.625 -11.640625 C 38.3125 -17.671875 38.15625 -21.9375 38.15625 -24.4375 L 38.15625 -46.40625 L 47 -46.40625 Z M 47 0 "/></g></g></g><g fill="#004160" fill-opacity="1"><g transform="translate(306.983715, 320.670447)"><g><path d="M 23.453125 -26.0625 L 41.859375 -26.0625 L 41.859375 -2 C 38.878906 -1.03125 36.070312 -0.347656 33.4375 0.046875 C 30.800781 0.441406 28.109375 0.640625 25.359375 0.640625 C 18.359375 0.640625 13.007812 -1.414062 9.3125 -5.53125 C 5.625 -9.65625 3.78125 -15.566406 3.78125 -23.265625 C 3.78125 -30.753906 5.921875 -36.59375 10.203125 -40.78125 C 14.484375 -44.96875 20.425781 -47.0625 28.03125 -47.0625 C 32.789062 -47.0625 37.378906 -46.113281 41.796875 -44.21875 L 38.53125 -36.34375 C 35.144531 -38.03125 31.625 -38.875 27.96875 -38.875 C 23.707031 -38.875 20.296875 -37.445312 17.734375 -34.59375 C 15.179688 -31.738281 13.90625 -27.898438 13.90625 -23.078125 C 13.90625 -18.035156 14.9375 -14.1875 17 -11.53125 C 19.0625 -8.875 22.0625 -7.546875 26 -7.546875 C 28.050781 -7.546875 30.132812 -7.757812 32.25 -8.1875 L 32.25 -17.875 L 23.453125 -17.875 Z M 23.453125 -26.0625 "/></g></g></g><g fill="#004160" fill-opacity="1"><g transform="translate(11.544932, 359.670476)"><g><path d="M 2.453125 0 L 2.453125 -17.84375 L 4.53125 -17.84375 L 4.53125 0 Z M 2.453125 0 "/></g></g></g><g fill="#004160" fill-opacity="1"><g transform="translate(21.014075, 359.670476)"><g><path d="M 16.390625 0 L 14.03125 0 L 4.265625 -14.984375 L 4.171875 -14.984375 C 4.304688 -13.222656 4.375 -11.609375 4.375 -10.140625 L 4.375 0 L 2.453125 0 L 2.453125 -17.84375 L 4.796875 -17.84375 L 14.53125 -2.9375 L 14.625 -2.9375 C 14.601562 -3.15625 14.5625 -3.859375 14.5 -5.046875 C 14.445312 -6.242188 14.429688 -7.097656 14.453125 -7.609375 L 14.453125 -17.84375 L 16.390625 -17.84375 Z M 16.390625 0 "/></g></g></g><g fill="#004160" fill-opacity="1"><g transform="translate(42.358795, 359.670476)"><g><path d="M 12.53125 -4.75 C 12.53125 -3.175781 11.957031 -1.945312 10.8125 -1.0625 C 9.675781 -0.1875 8.128906 0.25 6.171875 0.25 C 4.054688 0.25 2.429688 -0.0234375 1.296875 -0.578125 L 1.296875 -2.578125 C 2.023438 -2.265625 2.820312 -2.019531 3.6875 -1.84375 C 4.550781 -1.664062 5.40625 -1.578125 6.25 -1.578125 C 7.632812 -1.578125 8.675781 -1.835938 9.375 -2.359375 C 10.070312 -2.890625 10.421875 -3.617188 10.421875 -4.546875 C 10.421875 -5.171875 10.296875 -5.679688 10.046875 -6.078125 C 9.804688 -6.472656 9.394531 -6.835938 8.8125 -7.171875 C 8.226562 -7.503906 7.34375 -7.878906 6.15625 -8.296875 C 4.488281 -8.890625 3.300781 -9.59375 2.59375 -10.40625 C 1.882812 -11.226562 1.53125 -12.289062 1.53125 -13.59375 C 1.53125 -14.96875 2.046875 -16.0625 3.078125 -16.875 C 4.109375 -17.695312 5.472656 -18.109375 7.171875 -18.109375 C 8.953125 -18.109375 10.585938 -17.78125 12.078125 -17.125 L 11.421875 -15.3125 C 9.953125 -15.9375 8.519531 -16.25 7.125 -16.25 C 6.03125 -16.25 5.171875 -16.007812 4.546875 -15.53125 C 3.929688 -15.0625 3.625 -14.410156 3.625 -13.578125 C 3.625 -12.953125 3.738281 -12.441406 3.96875 -12.046875 C 4.195312 -11.660156 4.582031 -11.300781 5.125 -10.96875 C 5.664062 -10.632812 6.492188 -10.269531 7.609375 -9.875 C 9.472656 -9.207031 10.757812 -8.488281 11.46875 -7.71875 C 12.175781 -6.957031 12.53125 -5.96875 12.53125 -4.75 Z M 12.53125 -4.75 "/></g></g></g><g fill="#004160" fill-opacity="1"><g transform="translate(58.577364, 359.670476)"><g><path d="M 13.765625 -12.640625 C 13.765625 -10.835938 13.148438 -9.445312 11.921875 -8.46875 C 10.691406 -7.5 8.925781 -7.015625 6.625 -7.015625 L 4.53125 -7.015625 L 4.53125 0 L 2.453125 0 L 2.453125 -17.84375 L 7.078125 -17.84375 C 11.535156 -17.84375 13.765625 -16.109375 13.765625 -12.640625 Z M 4.53125 -8.796875 L 6.390625 -8.796875 C 8.234375 -8.796875 9.566406 -9.09375 10.390625 -9.6875 C 11.210938 -10.28125 11.625 -11.234375 11.625 -12.546875 C 11.625 -13.722656 11.234375 -14.597656 10.453125 -15.171875 C 9.679688 -15.753906 8.476562 -16.046875 6.84375 -16.046875 L 4.53125 -16.046875 Z M 4.53125 -8.796875 "/></g></g></g><g fill="#004160" fill-opacity="1"><g transform="translate(76.1263, 359.670476)"><g><path d="M 12.40625 0 L 2.453125 0 L 2.453125 -17.84375 L 12.40625 -17.84375 L 12.40625 -16 L 4.53125 -16 L 4.53125 -10.25 L 11.921875 -10.25 L 11.921875 -8.421875 L 4.53125 -8.421875 L 4.53125 -1.859375 L 12.40625 -1.859375 Z M 12.40625 0 "/></g></g></g><g fill="#004160" fill-opacity="1"><g transform="translate(92.527954, 359.670476)"><g><path d="M 15.34375 0 L 12.90625 0 L 6.390625 -8.65625 L 4.53125 -7 L 4.53125 0 L 2.453125 0 L 2.453125 -17.84375 L 4.53125 -17.84375 L 4.53125 -9 L 12.625 -17.84375 L 15.078125 -17.84375 L 7.890625 -10.09375 Z M 15.34375 0 "/></g></g></g><g fill="#004160" fill-opacity="1"><g transform="translate(110.369807, 359.670476)"><g><path d="M 7.953125 0 L 5.875 0 L 5.875 -16 L 0.21875 -16 L 0.21875 -17.84375 L 13.59375 -17.84375 L 13.59375 -16 L 7.953125 -16 Z M 7.953125 0 "/></g></g></g><g fill="#004160" fill-opacity="1"><g transform="translate(126.698225, 359.670476)"><g><path d="M 17.9375 -8.953125 C 17.9375 -6.085938 17.210938 -3.835938 15.765625 -2.203125 C 14.328125 -0.566406 12.320312 0.25 9.75 0.25 C 7.125 0.25 5.097656 -0.550781 3.671875 -2.15625 C 2.242188 -3.769531 1.53125 -6.039062 1.53125 -8.96875 C 1.53125 -11.875 2.242188 -14.125 3.671875 -15.71875 C 5.109375 -17.320312 7.144531 -18.125 9.78125 -18.125 C 12.34375 -18.125 14.34375 -17.3125 15.78125 -15.6875 C 17.21875 -14.0625 17.9375 -11.816406 17.9375 -8.953125 Z M 3.71875 -8.953125 C 3.71875 -6.535156 4.234375 -4.703125 5.265625 -3.453125 C 6.296875 -2.203125 7.789062 -1.578125 9.75 -1.578125 C 11.726562 -1.578125 13.222656 -2.195312 14.234375 -3.4375 C 15.242188 -4.6875 15.75 -6.523438 15.75 -8.953125 C 15.75 -11.347656 15.242188 -13.164062 14.234375 -14.40625 C 13.234375 -15.644531 11.75 -16.265625 9.78125 -16.265625 C 7.800781 -16.265625 6.296875 -15.640625 5.265625 -14.390625 C 4.234375 -13.148438 3.71875 -11.335938 3.71875 -8.953125 Z M 3.71875 -8.953125 "/></g></g></g><g fill="#004160" fill-opacity="1"><g transform="translate(148.665409, 359.670476)"><g><path d="M 4.53125 -7.421875 L 4.53125 0 L 2.453125 0 L 2.453125 -17.84375 L 7.34375 -17.84375 C 9.53125 -17.84375 11.144531 -17.421875 12.1875 -16.578125 C 13.238281 -15.742188 13.765625 -14.488281 13.765625 -12.8125 C 13.765625 -10.445312 12.570312 -8.847656 10.1875 -8.015625 L 15.03125 0 L 12.578125 0 L 8.25 -7.421875 Z M 4.53125 -9.203125 L 7.375 -9.203125 C 8.84375 -9.203125 9.914062 -9.492188 10.59375 -10.078125 C 11.28125 -10.660156 11.625 -11.535156 11.625 -12.703125 C 11.625 -13.878906 11.273438 -14.726562 10.578125 -15.25 C 9.878906 -15.769531 8.765625 -16.03125 7.234375 -16.03125 L 4.53125 -16.03125 Z M 4.53125 -9.203125 "/></g></g></g><g fill="#004160" fill-opacity="1"><g transform="translate(166.617103, 359.670476)"><g><path d="M 13.671875 0 L 11.453125 -5.671875 L 4.296875 -5.671875 L 2.09375 0 L 0 0 L 7.0625 -17.921875 L 8.796875 -17.921875 L 15.828125 0 Z M 10.796875 -7.546875 L 8.734375 -13.078125 C 8.460938 -13.773438 8.179688 -14.632812 7.890625 -15.65625 C 7.710938 -14.875 7.457031 -14.015625 7.125 -13.078125 L 5.03125 -7.546875 Z M 10.796875 -7.546875 "/></g></g></g><g fill="#004160" fill-opacity="1"><g transform="translate(184.93495, 359.670476)"><g><path d="M 7.953125 0 L 5.875 0 L 5.875 -16 L 0.21875 -16 L 0.21875 -17.84375 L 13.59375 -17.84375 L 13.59375 -16 L 7.953125 -16 Z M 7.953125 0 "/></g></g></g><g fill="#004160" fill-opacity="1"><g transform="translate(201.263368, 359.670476)"><g/></g></g><g fill="#004160" fill-opacity="1"><g transform="translate(210.256512, 359.670476)"><g><path d="M 15.34375 0 L 12.90625 0 L 6.390625 -8.65625 L 4.53125 -7 L 4.53125 0 L 2.453125 0 L 2.453125 -17.84375 L 4.53125 -17.84375 L 4.53125 -9 L 12.625 -17.84375 L 15.078125 -17.84375 L 7.890625 -10.09375 Z M 15.34375 0 "/></g></g></g><g fill="#004160" fill-opacity="1"><g transform="translate(228.098377, 359.670476)"><g><path d="M 13.671875 0 L 11.453125 -5.671875 L 4.296875 -5.671875 L 2.09375 0 L 0 0 L 7.0625 -17.921875 L 8.796875 -17.921875 L 15.828125 0 Z M 10.796875 -7.546875 L 8.734375 -13.078125 C 8.460938 -13.773438 8.179688 -14.632812 7.890625 -15.65625 C 7.710938 -14.875 7.457031 -14.015625 7.125 -13.078125 L 5.03125 -7.546875 Z M 10.796875 -7.546875 "/></g></g></g><g fill="#004160" fill-opacity="1"><g transform="translate(246.416224, 359.670476)"><g><path d="M 2.453125 -17.84375 L 7.5 -17.84375 C 9.863281 -17.84375 11.570312 -17.488281 12.625 -16.78125 C 13.6875 -16.070312 14.21875 -14.953125 14.21875 -13.421875 C 14.21875 -12.367188 13.921875 -11.5 13.328125 -10.8125 C 12.742188 -10.125 11.882812 -9.675781 10.75 -9.46875 L 10.75 -9.34375 C 13.457031 -8.882812 14.8125 -7.460938 14.8125 -5.078125 C 14.8125 -3.484375 14.269531 -2.238281 13.1875 -1.34375 C 12.113281 -0.445312 10.609375 0 8.671875 0 L 2.453125 0 Z M 4.53125 -10.203125 L 7.953125 -10.203125 C 9.410156 -10.203125 10.460938 -10.429688 11.109375 -10.890625 C 11.753906 -11.347656 12.078125 -12.125 12.078125 -13.21875 C 12.078125 -14.21875 11.71875 -14.9375 11 -15.375 C 10.28125 -15.820312 9.140625 -16.046875 7.578125 -16.046875 L 4.53125 -16.046875 Z M 4.53125 -8.453125 L 4.53125 -1.765625 L 8.25 -1.765625 C 9.6875 -1.765625 10.769531 -2.039062 11.5 -2.59375 C 12.226562 -3.15625 12.59375 -4.03125 12.59375 -5.21875 C 12.59375 -6.332031 12.21875 -7.148438 11.46875 -7.671875 C 10.726562 -8.191406 9.597656 -8.453125 8.078125 -8.453125 Z M 4.53125 -8.453125 "/></g></g></g><g fill="#004160" fill-opacity="1"><g transform="translate(265.112436, 359.670476)"><g/></g></g><g fill="#004160" fill-opacity="1"><g transform="translate(274.105569, 359.670476)"><g><path d="M 15.34375 0 L 12.90625 0 L 6.390625 -8.65625 L 4.53125 -7 L 4.53125 0 L 2.453125 0 L 2.453125 -17.84375 L 4.53125 -17.84375 L 4.53125 -9 L 12.625 -17.84375 L 15.078125 -17.84375 L 7.890625 -10.09375 Z M 15.34375 0 "/></g></g></g><g fill="#004160" fill-opacity="1"><g transform="translate(291.947433, 359.670476)"><g><path d="M 12.40625 0 L 2.453125 0 L 2.453125 -17.84375 L 12.40625 -17.84375 L 12.40625 -16 L 4.53125 -16 L 4.53125 -10.25 L 11.921875 -10.25 L 11.921875 -8.421875 L 4.53125 -8.421875 L 4.53125 -1.859375 L 12.40625 -1.859375 Z M 12.40625 0 "/></g></g></g><g fill="#004160" fill-opacity="1"><g transform="translate(308.349081, 359.670476)"><g><path d="M 16.703125 -9.09375 C 16.703125 -6.144531 15.898438 -3.890625 14.296875 -2.328125 C 12.703125 -0.773438 10.398438 0 7.390625 0 L 2.453125 0 L 2.453125 -17.84375 L 7.921875 -17.84375 C 10.691406 -17.84375 12.847656 -17.070312 14.390625 -15.53125 C 15.929688 -14 16.703125 -11.851562 16.703125 -9.09375 Z M 14.5 -9.015625 C 14.5 -11.347656 13.914062 -13.101562 12.75 -14.28125 C 11.582031 -15.457031 9.847656 -16.046875 7.546875 -16.046875 L 4.53125 -16.046875 L 4.53125 -1.796875 L 7.0625 -1.796875 C 9.53125 -1.796875 11.382812 -2.398438 12.625 -3.609375 C 13.875 -4.828125 14.5 -6.628906 14.5 -9.015625 Z M 14.5 -9.015625 "/></g></g></g><g fill="#004160" fill-opacity="1"><g transform="translate(329.071355, 359.670476)"><g><path d="M 2.453125 0 L 2.453125 -17.84375 L 4.53125 -17.84375 L 4.53125 0 Z M 2.453125 0 "/></g></g></g><g fill="#004160" fill-opacity="1"><g transform="translate(338.540493, 359.670476)"><g><path d="M 4.53125 -7.421875 L 4.53125 0 L 2.453125 0 L 2.453125 -17.84375 L 7.34375 -17.84375 C 9.53125 -17.84375 11.144531 -17.421875 12.1875 -16.578125 C 13.238281 -15.742188 13.765625 -14.488281 13.765625 -12.8125 C 13.765625 -10.445312 12.570312 -8.847656 10.1875 -8.015625 L 15.03125 0 L 12.578125 0 L 8.25 -7.421875 Z M 4.53125 -9.203125 L 7.375 -9.203125 C 8.84375 -9.203125 9.914062 -9.492188 10.59375 -10.078125 C 11.28125 -10.660156 11.625 -11.535156 11.625 -12.703125 C 11.625 -13.878906 11.273438 -14.726562 10.578125 -15.25 C 9.878906 -15.769531 8.765625 -16.03125 7.234375 -16.03125 L 4.53125 -16.03125 Z M 4.53125 -9.203125 "/></g></g></g><g fill="#004160" fill-opacity="1"><g transform="translate(356.492198, 359.670476)"><g><path d="M 2.453125 0 L 2.453125 -17.84375 L 4.53125 -17.84375 L 4.53125 0 Z M 2.453125 0 "/></g></g></g></svg>