<svg xmlns="http://www.w3.org/2000/svg" xmlns:xlink="http://www.w3.org/1999/xlink" width="500" zoomAndPan="magnify" viewBox="0 0 375 374.999991" height="500" preserveAspectRatio="xMidYMid meet" version="1.0"><defs><clipPath id="bf7a3467ed"><path d="M 0 33.066406 L 375 33.066406 L 375 342 L 0 342 Z M 0 33.066406 " clip-rule="nonzero"/></clipPath></defs><path fill="#008cce" d="M 160.410156 116.796875 L 137.085938 149.539062 L 129.222656 160.574219 L 109.992188 187.566406 L 98.367188 203.890625 L 66.917969 248.03125 L 31.449219 297.828125 L 0 341.972656 L 266.625 341.972656 L 235.179688 297.828125 L 85.632812 297.828125 L 121.105469 248.03125 L 191.003906 248.03125 L 199.128906 236.632812 L 222.453125 203.890625 L 152.550781 203.890625 L 164.175781 187.566406 L 183.40625 160.574219 L 253.308594 160.574219 L 284.753906 116.429688 L 214.851562 116.429688 L 214.59375 116.796875 L 214.332031 116.429688 L 160.667969 116.429688 Z M 160.410156 116.796875 " fill-opacity="1" fill-rule="evenodd"/><g clip-path="url(#bf7a3467ed)"><path fill="#004160" d="M 134.355469 77.304688 L 265.507812 77.304688 C 279.742188 77.304688 292.917969 82.074219 303.519531 90.089844 C 312.46875 96.855469 319.585938 105.941406 323.949219 116.429688 C 325.949219 121.222656 327.367188 126.308594 328.128906 131.601562 C 328.554688 134.542969 328.773438 137.546875 328.773438 140.597656 C 328.773438 147.570312 327.628906 154.289062 325.523438 160.574219 C 318.347656 181.996094 299.972656 198.402344 277.445312 202.753906 L 276.011719 203.011719 C 272.59375 203.589844 269.085938 203.890625 265.507812 203.890625 L 222.453125 203.890625 L 249.542969 241.921875 L 253.898438 248.035156 L 289.367188 297.828125 L 320.816406 341.972656 L 375 341.972656 L 343.550781 297.828125 L 303.191406 241.167969 C 337.765625 228.101562 363.984375 197.628906 371.019531 160.574219 C 372.25 154.097656 372.894531 147.421875 372.894531 140.597656 C 372.894531 132.296875 371.941406 124.203125 370.136719 116.429688 C 367.804688 106.386719 364.058594 96.871094 359.113281 88.105469 C 351.605469 74.792969 341.339844 63.21875 329.105469 54.167969 C 313.398438 42.554688 294.453125 35.105469 273.933594 33.492188 C 271.152344 33.273438 268.34375 33.164062 265.507812 33.164062 L 0.00390625 33.164062 L 31.449219 77.304688 L 59.316406 116.429688 L 82.902344 149.535156 L 106.484375 116.429688 L 109.992188 111.503906 L 85.632812 77.304688 Z M 134.355469 77.304688 " fill-opacity="1" fill-rule="evenodd"/></g></svg>